<?xml version="1.0" encoding="UTF-8"?>
<!DOCTYPE svg PUBLIC "-//W3C//DTD SVG 1.1//EN" "http://www.w3.org/Graphics/SVG/1.1/DTD/svg11.dtd">
<!-- Creator: CorelDRAW X7 -->
<svg xmlns="http://www.w3.org/2000/svg" xml:space="preserve" width="0.5in" height="0.5in" version="1.1" style="shape-rendering:geometricPrecision; text-rendering:geometricPrecision; image-rendering:optimizeQuality; fill-rule:evenodd; clip-rule:evenodd"
viewBox="0 0 68 76"
 xmlns:xlink="http://www.w3.org/1999/xlink">
 <defs>
 </defs>
 <g id="Layer_x0020_1">
  <metadata id="CorelCorpID_0Corel-Layer"/>
  <path fill="rgba(0, 0, 0, 0.7)" d="M37 1l28 16c1,1 3,3 3,5l0 32c0,2 -2,4 -3,5l-28 16c-2,1 -4,1 -6,0l-28 -16c-2,-1 -3,-3 -3,-5l0 -32c0,-2 1,-4 3,-5l28 -16c2,-1 4,-1 6,0zm-13 41c0,0 0,0 0,0l-14 6c0,0 0,0 0,0 -1,0 -1,0 -1,0 -2,1 -3,0 -4,-1 -1,-2 0,-4 2,-4 0,0 0,0 0,0 1,0 1,-1 1,-1l14 -5c0,0 0,0 0,0l-1 -1c0,0 0,0 0,0l-7 3c0,0 0,0 -1,0 0,0 0,0 0,0 -2,1 -4,0 -4,-2 -1,-1 0,-3 1,-3 1,-1 1,-1 1,-1 0,0 1,0 1,0l5 -2 -11 -12 59 4 -41 43 0 -16 -5 2c0,0 0,0 0,0 0,0 -1,0 -1,0 -1,1 -3,0 -4,-1 0,-2 0,-4 2,-4 0,0 0,0 1,0 0,0 0,0 0,-1l7 -2c0,0 0,0 0,0l0 -2zm1 -2c0,1 -1,2 -2,2l-13 5c0,0 -1,0 -1,0 0,1 0,1 0,1 -2,0 -3,0 -3,-1 -1,-2 0,-3 1,-4 0,0 0,0 1,0 0,0 0,0 0,0l14 -5c0,-1 1,-1 2,0l-3 -3c0,0 0,0 0,0l-7 3c-1,0 -1,0 -1,0 0,0 0,0 -1,1 -1,0 -2,-1 -3,-2 0,-1 1,-2 2,-3 0,0 0,0 1,0 0,0 0,0 0,0l6 -3 -11 -11 57 3 -39 41 0 -15 -6 2c0,0 0,0 0,0 -1,1 -1,1 -1,1 -1,0 -3,0 -3,-1 -1,-2 0,-3 1,-4 0,0 1,0 1,0 0,0 0,0 0,0l7 -3c1,0 1,0 1,0l0 -4zm35 -15l-17 17 -16 17 0 -15 7 1 14 -15 -13 6c0,0 -1,1 -2,1 -1,1 -2,0 -2,-1 0,-1 0,-2 1,-2 1,-1 2,0 2,0l13 -5 -20 -2 -4 6 -11 -11 24 2 24 1zm-32 14c0,0 0,0 0,0l0 0 0 -1c0,0 0,0 0,-1 0,0 -1,0 -1,0l0 0c0,0 0,0 0,0l0 0 0 0c0,0 0,0 0,0l0 0c0,0 0,1 0,1l0 1c0,0 0,0 0,0l0 0c0,0 0,0 0,0l0 -1 0 0 1 1 0 0c0,0 0,0 0,0l0 0zm-1 -2l0 0c0,0 1,0 1,0 0,0 0,0 -1,0l0 0zm0 -1c1,0 2,0 2,0 0,1 0,1 0,2 0,0 0,1 0,1 0,0 -1,1 -2,1 0,0 -1,-1 -1,-1 0,0 0,-1 0,-1 0,-1 0,-1 0,-2 0,0 1,0 1,0zm2 1c-1,-1 -1,-1 -2,-1 0,0 0,0 -1,1 0,0 0,0 0,1 0,0 0,1 0,1 1,0 1,0 1,0 1,0 1,0 2,0 0,0 0,-1 0,-1 0,-1 0,-1 0,-1zm-12 12c1,1 0,1 0,1 0,0 0,0 0,0 -1,0 0,-1 0,-1 0,0 0,0 0,0zm-9 -4c0,1 0,1 0,1 0,0 -1,0 -1,0 0,0 0,-1 1,-1 0,0 0,0 0,0zm4 -9c0,0 0,1 0,1 0,0 -1,0 -1,0 0,-1 0,-1 0,-1 1,0 1,0 1,0zm13 10c0,0 1,0 1,0 0,0 0,1 -1,1l-7 3c0,0 0,0 0,-1 0,0 0,0 0,0l7 -3zm-5 -13c0,0 0,0 0,0 0,0 0,0 0,0 0,0 0,0 0,0l-7 3c0,0 0,0 -1,0 0,0 0,0 1,0l7 -3zm2 6c1,0 1,0 1,1 0,0 0,0 0,0l-14 5c0,1 0,0 0,0 -1,0 0,0 0,0l13 -6z"/>
 </g>
</svg>